<svg xmlns="http://www.w3.org/2000/svg" width="12" height="11" viewBox="0 0 12 11" fill="none">
  <path d="M2.42961 9.19187L3.82661 8.72575L4.07823 8.84812C4.66055 9.13069 5.32605 9.28125 6.05273 9.28125C8.45623 9.28125 10.1777 7.56387 10.1777 5.5C10.1777 3.42856 8.46861 1.71875 6.05273 1.71875C3.63686 1.71875 1.92773 3.42856 1.92773 5.5C1.9318 6.2927 2.19281 7.06272 2.67161 7.6945L2.90398 8.00387L2.42961 9.19119V9.19187ZM1.94355 10.0787C1.88133 10.0996 1.81445 10.1022 1.75081 10.0863C1.68716 10.0703 1.62941 10.0365 1.58437 9.98877C1.53933 9.94105 1.50889 9.88145 1.49664 9.81699C1.48439 9.75253 1.49084 9.68591 1.51523 9.625L2.1223 8.10769C1.55386 7.3568 1.24435 6.44177 1.24023 5.5C1.24023 3.22162 3.08411 1.03125 6.05273 1.03125C9.02136 1.03125 10.8652 3.22162 10.8652 5.5C10.8652 7.77837 9.00211 9.96875 6.05273 9.96875C5.1968 9.96875 4.4323 9.7845 3.77848 9.46687L1.94286 10.0787H1.94355Z" fill="#E42A89"/>
</svg>