<svg width="25" height="17" viewBox="0 0 25 17" fill="none" xmlns="http://www.w3.org/2000/svg">
<path id="community icon" d="M16.6665 8.49999C15.5957 8.49999 14.5603 8.05664 13.7499 7.25204C12.9619 6.46724 12.4806 5.42068 12.3957 4.30602C12.3051 3.11699 12.6962 2.02358 13.4967 1.2267C14.2973 0.429829 15.4165 0 16.6665 0C17.9077 0 19.0301 0.437556 19.828 1.2325C20.6337 2.03517 21.0259 3.12664 20.9352 4.30553C20.8483 5.42164 20.3675 6.46772 19.5811 7.25155C18.7728 8.05664 17.7379 8.49999 16.6665 8.49999ZM23.5326 17H9.80093C9.58016 17.0011 9.36205 16.9552 9.16341 16.8659C8.96476 16.7765 8.79086 16.6461 8.6551 16.4847C8.5111 16.3097 8.41165 16.1067 8.3642 15.891C8.31676 15.6753 8.32255 15.4525 8.38115 15.2391C8.81969 13.6063 9.90614 12.2521 11.5228 11.3233C12.9577 10.4994 14.7842 10.0454 16.6665 10.0454C18.5858 10.0454 20.3644 10.4801 21.8076 11.3035C23.4279 12.2274 24.516 13.5894 24.9524 15.242C25.0103 15.4555 25.0154 15.6784 24.9675 15.8939C24.9195 16.1095 24.8196 16.3123 24.6753 16.4871C24.5397 16.6478 24.3662 16.7775 24.1681 16.8664C23.9701 16.9554 23.7527 17.001 23.5326 17ZM6.82282 8.69317C4.99002 8.69317 3.37857 7.11295 3.22909 5.17099C3.15513 4.1761 3.48951 3.25608 4.16659 2.58139C4.83637 1.91346 5.78116 1.54545 6.82282 1.54545C7.86448 1.54545 8.80198 1.9154 9.47541 2.58718C10.1577 3.26718 10.491 4.18528 10.4129 5.17195C10.2634 7.11343 8.6525 8.69317 6.82282 8.69317ZM10.2426 10.2121C9.32645 9.79672 8.1374 9.58905 6.82334 9.58905C5.28897 9.58905 3.79888 9.95996 2.62701 10.6332C1.29837 11.3977 0.404626 12.5109 0.0436905 13.855C-0.00912944 14.0483 -0.0141253 14.2502 0.0290767 14.4456C0.0722788 14.6409 0.16256 14.8247 0.293168 14.9832C0.417099 15.1307 0.575867 15.2499 0.757263 15.3316C0.938659 15.4133 1.13785 15.4554 1.33952 15.4545H7.12074C7.21831 15.4545 7.31279 15.4227 7.3877 15.3648C7.4626 15.3068 7.51319 15.2263 7.53063 15.1372C7.53636 15.1068 7.54365 15.0764 7.55198 15.0464C7.99365 13.4015 9.02854 12.0115 10.5577 10.9983C10.6139 10.9607 10.6592 10.9107 10.6893 10.8528C10.7194 10.7949 10.7335 10.7309 10.7303 10.6667C10.727 10.6025 10.7065 10.5401 10.6706 10.485C10.6348 10.43 10.5847 10.3842 10.5249 10.3516C10.4431 10.3072 10.3494 10.2604 10.2426 10.2121Z" fill="white"/>
</svg>
