<svg width="14" height="14" viewBox="0 0 14 14" fill="none" xmlns="http://www.w3.org/2000/svg">
<path id="Vector" d="M3.33333 1.66659C3.33333 1.31296 3.47381 0.973825 3.72386 0.723776C3.97391 0.473728 4.31304 0.333252 4.66667 0.333252H8.66667C9.02029 0.333252 9.35943 0.473728 9.60948 0.723776C9.85952 0.973825 10 1.31296 10 1.66659V2.99992H12.6667C12.8435 2.99992 13.013 3.07016 13.1381 3.19518C13.2631 3.3202 13.3333 3.48977 13.3333 3.66658C13.3333 3.8434 13.2631 4.01297 13.1381 4.13799C13.013 4.26301 12.8435 4.33325 12.6667 4.33325H11.954L11.376 12.4279C11.3521 12.7643 11.2015 13.0791 10.9547 13.309C10.708 13.5388 10.3832 13.6666 10.046 13.6666H3.28667C2.94943 13.6666 2.62471 13.5388 2.37792 13.309C2.13114 13.0791 1.98061 12.7643 1.95667 12.4279L1.38 4.33325H0.666667C0.489856 4.33325 0.320286 4.26301 0.195262 4.13799C0.0702379 4.01297 0 3.8434 0 3.66658C0 3.48977 0.0702379 3.3202 0.195262 3.19518C0.320286 3.07016 0.489856 2.99992 0.666667 2.99992H3.33333V1.66659ZM4.66667 2.99992H8.66667V1.66659H4.66667V2.99992ZM2.716 4.33325L3.28733 12.3333H10.0467L10.618 4.33325H2.716ZM5.33333 5.66658C5.51014 5.66658 5.67971 5.73682 5.80474 5.86185C5.92976 5.98687 6 6.15644 6 6.33325V10.3333C6 10.5101 5.92976 10.6796 5.80474 10.8047C5.67971 10.9297 5.51014 10.9999 5.33333 10.9999C5.15652 10.9999 4.98695 10.9297 4.86193 10.8047C4.7369 10.6796 4.66667 10.5101 4.66667 10.3333V6.33325C4.66667 6.15644 4.7369 5.98687 4.86193 5.86185C4.98695 5.73682 5.15652 5.66658 5.33333 5.66658ZM8 5.66658C8.17681 5.66658 8.34638 5.73682 8.4714 5.86185C8.59643 5.98687 8.66667 6.15644 8.66667 6.33325V10.3333C8.66667 10.5101 8.59643 10.6796 8.4714 10.8047C8.34638 10.9297 8.17681 10.9999 8 10.9999C7.82319 10.9999 7.65362 10.9297 7.52859 10.8047C7.40357 10.6796 7.33333 10.5101 7.33333 10.3333V6.33325C7.33333 6.15644 7.40357 5.98687 7.52859 5.86185C7.65362 5.73682 7.82319 5.66658 8 5.66658Z" fill="white"/>
</svg>
