<svg width="27" height="27" viewBox="0 0 27 27" fill="none" xmlns="http://www.w3.org/2000/svg">
<g id="list icon">
<path id="Union" fill-rule="evenodd" clip-rule="evenodd" d="M1 0C0.447715 0 0 0.447715 0 1V26C0 26.5523 0.447715 27 1 27H26C26.5523 27 27 26.5523 27 26V1C27 0.447715 26.5523 0 26 0H1ZM2 25V2H25V25H2ZM3.27271 7.06053C3.27271 6.85961 3.35252 6.66693 3.49459 6.52486C3.63667 6.38279 3.82936 6.30298 4.03028 6.30298H20.6969C20.8979 6.30298 21.0906 6.38279 21.2326 6.52486C21.3747 6.66693 21.4545 6.85961 21.4545 7.06053C21.4545 7.26144 21.3747 7.45412 21.2326 7.59619C21.0906 7.73826 20.8979 7.81807 20.6969 7.81807H4.03028C3.82936 7.81807 3.63667 7.73826 3.49459 7.59619C3.35252 7.45412 3.27271 7.26144 3.27271 7.06053ZM4.03028 13.8785H10.0909C10.2918 13.8785 10.4845 13.7986 10.6266 13.6566C10.7686 13.5145 10.8485 13.3218 10.8485 13.1209C10.8485 12.92 10.7686 12.7273 10.6266 12.5852C10.4845 12.4432 10.2918 12.3634 10.0909 12.3634H4.03028C3.82936 12.3634 3.63667 12.4432 3.49459 12.5852C3.35252 12.7273 3.27271 12.92 3.27271 13.1209C3.27271 13.3218 3.35252 13.5145 3.49459 13.6566C3.63667 13.7986 3.82936 13.8785 4.03028 13.8785ZM11.606 18.4237H4.03028C3.82936 18.4237 3.63667 18.5035 3.49459 18.6456C3.35252 18.7877 3.27271 18.9804 3.27271 19.1813C3.27271 19.3822 3.35252 19.5749 3.49459 19.7169C3.63667 19.859 3.82936 19.9388 4.03028 19.9388H11.606C11.807 19.9388 11.9997 19.859 12.1417 19.7169C12.2838 19.5749 12.3636 19.3822 12.3636 19.1813C12.3636 18.9804 12.2838 18.7877 12.1417 18.6456C11.9997 18.5035 11.807 18.4237 11.606 18.4237ZM23.7273 14.636C23.7273 18.0942 18.9659 20.5146 18.7632 20.6168C18.658 20.6695 18.5419 20.6969 18.4242 20.6969C18.3065 20.6969 18.1905 20.6695 18.0852 20.6168C17.8826 20.5146 13.1212 18.0942 13.1212 14.636C13.1217 14.0207 13.3095 13.4202 13.6596 12.9142C14.0097 12.4082 14.5056 12.0208 15.0813 11.8035C15.6569 11.5862 16.2851 11.5493 16.8822 11.6977C17.4794 11.8461 18.0172 12.1727 18.4242 12.6342C18.8312 12.1727 19.369 11.8461 19.9662 11.6977C20.5633 11.5493 21.1915 11.5862 21.7672 11.8035C22.3428 12.0208 22.8387 12.4082 23.1888 12.9142C23.5389 13.4202 23.7268 14.0207 23.7273 14.636Z" fill="url(#paint0_linear_395_616)"/>
</g>
<defs>
<linearGradient id="paint0_linear_395_616" x1="13.5" y1="0" x2="13.5" y2="27" gradientUnits="userSpaceOnUse">
<stop offset="0.35" stop-color="#E42A89"/>
<stop offset="1" stop-color="#402846"/>
</linearGradient>
</defs>
</svg>
