<svg xmlns="http://www.w3.org/2000/svg" width="11" height="10" viewBox="0 0 11 10" fill="none">
  <path d="M4.97149 0.463526C5.12117 0.00287116 5.77287 0.00286996 5.92255 0.463525L6.79411 3.1459C6.86104 3.35191 7.05302 3.49139 7.26963 3.49139H10.09C10.5744 3.49139 10.7758 4.1112 10.3839 4.3959L8.10218 6.0537C7.92693 6.18102 7.8536 6.4067 7.92054 6.61271L8.7921 9.29508C8.94177 9.75574 8.41453 10.1388 8.02268 9.8541L5.74091 8.19631C5.56567 8.06898 5.32837 8.06898 5.15313 8.19631L2.87137 9.8541C2.47951 10.1388 1.95227 9.75574 2.10195 9.29508L2.9735 6.61271C3.04044 6.4067 2.96711 6.18102 2.79187 6.0537L0.510104 4.3959C0.118247 4.1112 0.319634 3.49139 0.803996 3.49139H3.62441C3.84102 3.49139 4.033 3.35191 4.09994 3.1459L4.97149 0.463526Z" fill="url(#paint0_linear_233_894)"/>
  <defs>
    <linearGradient id="paint0_linear_233_894" x1="6.89147" y1="4.05556" x2="3.28035" y2="8.38889" gradientUnits="userSpaceOnUse">
      <stop stop-color="#E42A89"/>
      <stop offset="1" stop-color="#402846"/>
    </linearGradient>
  </defs>
</svg>