<svg width="15" height="15" viewBox="0 0 15 15" fill="none" xmlns="http://www.w3.org/2000/svg">
<g id="&#236;&#166;&#144;&#236;&#176;&#190; &#236;&#149;&#132;&#236;&#157;&#180;&#236;&#189;&#152;">
<circle id="Ellipse 12" cx="7.61767" cy="7.50006" r="7.26471" fill="#402846"/>
<path id="Star 2" d="M7.14214 3.93423C7.29182 3.47357 7.94352 3.47357 8.0932 3.93423L8.63458 5.60045C8.70152 5.80646 8.8935 5.94594 9.11011 5.94594L10.8621 5.94594C11.3464 5.94594 11.5478 6.56575 11.156 6.85045L9.7386 7.88023C9.56336 8.00755 9.49003 8.23324 9.55697 8.43925L10.0984 10.1055C10.248 10.5661 9.72079 10.9492 9.32893 10.6645L7.91156 9.6347C7.73632 9.50738 7.49902 9.50738 7.32378 9.6347L5.9064 10.6645C5.51455 10.9492 4.98731 10.5661 5.13698 10.1055L5.67837 8.43925C5.74531 8.23324 5.67198 8.00755 5.49674 7.88023L4.07936 6.85045C3.68751 6.56575 3.88889 5.94594 4.37326 5.94594L6.12522 5.94594C6.34184 5.94594 6.53382 5.80646 6.60075 5.60045L7.14214 3.93423Z" fill="white"/>
</g>
</svg>
