<svg width="14" height="14" viewBox="0 0 14 14" fill="none" xmlns="http://www.w3.org/2000/svg">
<path id="Vector" d="M4.75079 9.25133L9.25085 4.75073M6.25081 2.50043L6.59806 2.09838C7.30143 1.39503 8.25535 0.99993 9.24999 1C10.2446 1.00007 11.1985 1.3953 11.9018 2.09875C12.605 2.8022 13.0001 3.75624 13 4.75099C12.9999 5.74575 12.6047 6.69973 11.9014 7.40308L11.5009 7.75113M7.75083 11.5016L7.45307 11.9022C6.74131 12.6056 5.78103 13 4.78041 13C3.7798 13 2.81952 12.6056 2.10775 11.9022C1.75684 11.5554 1.47822 11.1425 1.28807 10.6872C1.09792 10.232 1 9.74356 1 9.2502C1 8.75684 1.09792 8.26839 1.28807 7.81316C1.47822 7.35792 1.75684 6.94497 2.10775 6.59822L2.50076 6.25093" stroke="#402846" stroke-width="1.25" stroke-linecap="round" stroke-linejoin="round"/>
</svg>
