<svg width="34" height="23" viewBox="0 0 34 23" fill="none" xmlns="http://www.w3.org/2000/svg">
<path id="community icon" d="M22.6665 11.5C21.2101 11.5 19.802 10.9002 18.6998 9.81158C17.6281 8.74979 16.9736 7.33386 16.8582 5.82579C16.7349 4.2171 17.2669 2.73778 18.3556 1.65966C19.4443 0.581533 20.9665 0 22.6665 0C24.3544 0 25.8809 0.591988 26.966 1.6675C28.0618 2.75346 28.5952 4.23017 28.4719 5.82513C28.3536 7.33516 27.6999 8.75044 26.6303 9.81093C25.531 10.9002 24.1235 11.5 22.6665 11.5ZM32.0044 23H13.3293C13.029 23.0015 12.7324 22.9394 12.4622 22.8185C12.1921 22.6976 11.9556 22.5212 11.7709 22.3028C11.5751 22.066 11.4398 21.7914 11.3753 21.4996C11.3108 21.2078 11.3187 20.9063 11.3984 20.6176C11.9948 18.4085 13.4724 16.5763 15.671 15.3198C17.6225 14.2051 20.1066 13.5909 22.6665 13.5909C25.2767 13.5909 27.6956 14.179 29.6584 15.293C31.862 16.543 33.3417 18.3856 33.9353 20.6216C34.014 20.9104 34.021 21.2119 33.9558 21.5036C33.8905 21.7952 33.7547 22.0696 33.5585 22.3061C33.374 22.5235 33.1381 22.699 32.8687 22.8193C32.5993 22.9396 32.3036 23.0014 32.0044 23ZM9.27904 11.7613C6.78643 11.7613 4.59485 9.6234 4.39156 6.99604C4.29098 5.65002 4.74573 4.40528 5.66656 3.49247C6.57747 2.5888 7.86238 2.09091 9.27904 2.09091C10.6957 2.09091 11.9707 2.59142 12.8866 3.50031C13.8145 4.42031 14.2678 5.66244 14.1616 6.99735C13.9583 9.62405 11.7674 11.7613 9.27904 11.7613ZM13.9299 13.8163C12.684 13.2544 11.0669 12.9734 9.27975 12.9734C7.19301 12.9734 5.16648 13.4752 3.57273 14.3861C1.76579 15.4204 0.550292 16.9265 0.0594191 18.745C-0.012416 19.0065 -0.0192104 19.2797 0.0395444 19.544C0.0982991 19.8083 0.221082 20.057 0.398709 20.2713C0.567254 20.4709 0.783179 20.6322 1.02988 20.7428C1.27658 20.8533 1.54748 20.9102 1.82174 20.9091H9.6842C9.81691 20.909 9.9454 20.8661 10.0473 20.7876C10.1491 20.7092 10.2179 20.6002 10.2417 20.4798C10.2494 20.4386 10.2594 20.3974 10.2707 20.3569C10.8714 18.1314 12.2788 16.2509 14.3585 14.8801C14.435 14.8292 14.4965 14.7615 14.5375 14.6832C14.5784 14.6049 14.5976 14.5183 14.5932 14.4315C14.5887 14.3446 14.5609 14.2601 14.5121 14.1856C14.4633 14.1112 14.3952 14.0492 14.3138 14.0052C14.2026 13.945 14.0751 13.8817 13.9299 13.8163Z" fill="url(#paint0_linear_395_609)"/>
<defs>
<linearGradient id="paint0_linear_395_609" x1="17" y1="0" x2="17" y2="23" gradientUnits="userSpaceOnUse">
<stop offset="0.35" stop-color="#E42A89"/>
<stop offset="1" stop-color="#402846"/>
</linearGradient>
</defs>
</svg>
